<svg width="36" height="36" viewBox="0 0 36 36" fill="none" xmlns="http://www.w3.org/2000/svg">
<path d="M3.1861 9.23142L16.6476 3.62244C17.3656 3.3233 18.1733 3.3233 18.8912 3.62244L25.0611 6.19322L32.3528 9.23142M3.1861 9.23142L10.4778 12.2696M3.1861 9.23142V15.5509M17.7694 15.3078V32.3217M17.7694 15.3078L32.3528 9.23142M17.7694 15.3078L10.4778 12.2696M17.7694 32.3217L4.08353 26.6192C3.54009 26.3928 3.1861 25.8618 3.1861 25.2731V19.9259M17.7694 32.3217L31.4553 26.6192C31.9988 26.3928 32.3528 25.8618 32.3528 25.2731V9.23142M10.4778 12.2696L19.9569 8.2592" stroke="white" stroke-width="2.1875" stroke-linecap="round" stroke-linejoin="round"/>
</svg>
