<svg width="36" height="36" viewBox="0 0 36 36" fill="none" xmlns="http://www.w3.org/2000/svg">
<path d="M20.2199 28.2299C19.7144 28.5549 19.5681 29.2281 19.893 29.7336C20.218 30.2391 20.8912 30.3854 21.3967 30.0604L20.2199 28.2299ZM15.1422 30.0604C15.6477 30.3854 16.3209 30.2391 16.6459 29.7336C16.9708 29.2281 16.8245 28.5549 16.319 28.2299L15.1422 30.0604ZM12.3817 28.138L11.7171 27.2764L12.3817 28.138ZM14.0523 28.0663L13.4639 28.9816L14.0523 28.0663ZM24.1572 28.138L24.8218 27.2764L24.1572 28.138ZM22.4866 28.0663L21.8982 27.151L22.4866 28.0663ZM27.3368 5.31616V28.4787H29.513V5.31616H27.3368ZM9.2021 28.4787V5.31616H7.02593V28.4787H9.2021ZM26.7526 28.7659L24.8218 27.2764L23.4926 28.9995L25.4234 30.4889L26.7526 28.7659ZM11.7171 27.2764L9.78633 28.7659L11.1155 30.4889L13.0463 28.9995L11.7171 27.2764ZM21.8982 27.151L20.2199 28.2299L21.3967 30.0604L23.075 28.9816L21.8982 27.151ZM16.319 28.2299L14.6407 27.151L13.4639 28.9816L15.1422 30.0604L16.319 28.2299ZM13.0463 28.9995C13.1677 28.9058 13.3349 28.8986 13.4639 28.9816L14.6407 27.151C13.7377 26.5705 12.5671 26.6207 11.7171 27.2764L13.0463 28.9995ZM24.8218 27.2764C23.9718 26.6207 22.8012 26.5705 21.8982 27.151L23.075 28.9816C23.204 28.8986 23.3712 28.9058 23.4926 28.9995L24.8218 27.2764ZM7.02593 28.4787C7.02593 30.5867 9.44642 31.7765 11.1155 30.4889L9.78633 28.7659C9.54788 28.9498 9.2021 28.7798 9.2021 28.4787H7.02593ZM27.3368 28.4787C27.3368 28.7798 26.991 28.9498 26.7526 28.7659L25.4234 30.4889C27.0925 31.7765 29.513 30.5867 29.513 28.4787H27.3368Z" fill="white"/>
<path d="M13.917 14.0208H18.2693" stroke="white" stroke-width="2.17617" stroke-linecap="round" stroke-linejoin="round"/>
<path d="M5.2124 5.31604H18.2694M31.3264 5.31604H24.7979" stroke="white" stroke-width="2.17617" stroke-linecap="round" stroke-linejoin="round"/>
<path d="M13.917 19.8239H18.2693" stroke="white" stroke-width="2.17617" stroke-linecap="round" stroke-linejoin="round"/>
<path d="M22.6218 14.0208H23.3472" stroke="white" stroke-width="2.17617" stroke-linecap="round" stroke-linejoin="round"/>
<path d="M22.6218 19.8239H23.3472" stroke="white" stroke-width="2.17617" stroke-linecap="round" stroke-linejoin="round"/>
</svg>
