<svg width="36" height="36" viewBox="0 0 36 36" fill="none" xmlns="http://www.w3.org/2000/svg">
<path d="M3.68604 24.301V25.0302C3.68604 29.0573 6.95062 32.3219 10.9777 32.3219H25.561C29.5881 32.3219 32.8527 29.0573 32.8527 25.0302V16.2802C32.8527 12.2531 29.5881 8.98853 25.561 8.98853H10.9777C6.95063 8.98853 3.68604 12.2531 3.68604 16.2802V17.7385" stroke="white" stroke-width="2.1875" stroke-linecap="round"/>
<path d="M28.4778 9.71753V9.48294C28.4778 6.21622 25.4795 3.77233 22.2798 4.43107V4.43107L16.0819 5.70711L9.50738 7.0607C6.11814 7.75848 3.6861 10.7423 3.6861 14.2026L3.6861 17.7384" stroke="white" stroke-width="2.1875"/>
<path d="M9.51935 25.7594H18.2693" stroke="white" stroke-width="2.1875" stroke-linecap="round" stroke-linejoin="round"/>
<path d="M32.8527 24.3009V25.3947H33.9464V24.3009H32.8527ZM27.7485 18.103C28.3526 18.103 28.8423 17.6133 28.8423 17.0093C28.8423 16.4052 28.3526 15.9155 27.7485 15.9155V18.103ZM31.7589 17.0093V24.3009H33.9464V17.0093H31.7589ZM32.8527 23.2072H26.2902V25.3947H32.8527V23.2072ZM26.2902 18.103H27.7485V15.9155H26.2902V18.103ZM26.2902 23.2072C24.8807 23.2072 23.7381 22.0646 23.7381 20.6551H21.5506C21.5506 23.2727 23.6726 25.3947 26.2902 25.3947V23.2072ZM23.7381 20.6551C23.7381 19.2456 24.8807 18.103 26.2902 18.103V15.9155C23.6726 15.9155 21.5506 18.0375 21.5506 20.6551H23.7381Z" fill="white"/>
<path d="M26.2902 20.6553H26.5818" stroke="white" stroke-width="2.1875" stroke-linecap="round" stroke-linejoin="round"/>
</svg>
