<svg width="36" height="36" viewBox="0 0 36 36" fill="none" xmlns="http://www.w3.org/2000/svg">
<path d="M13.6154 12.4943C13.6154 15.2362 15.8381 17.4589 18.58 17.4589C21.3218 17.4589 23.5445 15.2362 23.5445 12.4943C23.5445 9.75249 21.3218 7.52979 18.58 7.52979" stroke="white" stroke-width="2.1875" stroke-linecap="round"/>
<path d="M9.89185 24.8246C9.89185 23.7568 10.5631 22.8043 11.5687 22.4451V22.4451C16.1025 20.8259 21.057 20.8259 25.5908 22.4451V22.4451C26.5965 22.8043 27.2677 23.7568 27.2677 24.8246V26.4573C27.2677 27.9311 25.9624 29.0632 24.5035 28.8548L24.017 28.7853C20.4105 28.2701 16.7491 28.2701 13.1425 28.7853L12.6561 28.8548C11.1972 29.0632 9.89185 27.9311 9.89185 26.4573V24.8246Z" stroke="white" stroke-width="2.1875"/>
<path d="M26.0271 17.5963C28.1814 17.5963 29.9278 15.8499 29.9278 13.6956C29.9278 11.5413 28.1814 9.79492 26.0271 9.79492" stroke="white" stroke-width="2.1875" stroke-linecap="round"/>
<path d="M30.2988 26.4954L30.681 26.55C31.8273 26.7137 32.8529 25.8242 32.8529 24.6663V23.3834C32.8529 22.5444 32.3255 21.796 31.5354 21.5138C30.7472 21.2323 29.9429 21.0131 29.1295 20.8562" stroke="white" stroke-width="2.1875" stroke-linecap="round"/>
<path d="M10.5121 17.5963C8.3578 17.5963 6.61139 15.8499 6.61139 13.6956C6.61139 11.5413 8.3578 9.79492 10.5121 9.79492" stroke="white" stroke-width="2.1875" stroke-linecap="round"/>
<path d="M6.24038 26.4954L5.85819 26.55C4.71186 26.7137 3.68626 25.8242 3.68626 24.6663V23.3834C3.68626 22.5444 4.21369 21.796 5.00382 21.5138C5.79197 21.2323 6.59631 21.0131 7.40967 20.8562" stroke="white" stroke-width="2.1875" stroke-linecap="round"/>
</svg>
