<?xml version="1.0" encoding="UTF-8" standalone="no" ?>
<!DOCTYPE svg PUBLIC "-//W3C//DTD SVG 1.1//EN" "http://www.w3.org/Graphics/SVG/1.1/DTD/svg11.dtd">
<svg xmlns="http://www.w3.org/2000/svg" xmlns:xlink="http://www.w3.org/1999/xlink" version="1.1" width="1080" height="1080" viewBox="0 0 1080 1080" xml:space="preserve">
<desc>Created with Fabric.js 5.2.4</desc>
<defs>
</defs>
<g transform="matrix(1 0 0 1 540 540)" id="164ba6b2-2ff9-4836-9636-464486d2e435"  >
<rect style="stroke: none; stroke-width: 1; stroke-dasharray: none; stroke-linecap: butt; stroke-dashoffset: 0; stroke-linejoin: miter; stroke-miterlimit: 4; fill: rgb(255,255,255); fill-rule: nonzero; opacity: 1; visibility: hidden;" vector-effect="non-scaling-stroke"  x="-540" y="-540" rx="0" ry="0" width="1080" height="1080" />
</g>
<g transform="matrix(1 0 0 1 540 540)" id="932de840-f705-4ae1-820b-5806645d4408"  >
</g>
<g transform="matrix(1 0 0 1 540 540)"  >
<g style="" vector-effect="non-scaling-stroke"   >
		<g transform="matrix(1 0 0 1 0 0)"  >
<path style="stroke: none; stroke-width: 1; stroke-dasharray: none; stroke-linecap: butt; stroke-dashoffset: 0; stroke-linejoin: miter; stroke-miterlimit: 4; fill: rgb(23,5,52); fill-rule: evenodd; opacity: 1;" vector-effect="non-scaling-stroke"  transform=" translate(-428.88, -342.56)" d="M 320.653 179.717 C 316.232 197.884 307.589 207.819 291.75 212.942 C 289.688 213.609 288 214.549 288 215.029 C 288 215.51 291.77 217.671 296.378 219.83 C 301.204 222.091 306.462 225.462 308.78 227.78 C 313.513 232.513 318.401 242.25 320.679 251.483 C 321.573 255.103 322.747 257.918 323.288 257.737 C 323.829 257.557 325.066 254.358 326.037 250.628 C 330.711 232.661 337.717 224.759 355.322 217.597 C 359.91 215.73 359.504 214.7 353.354 212.605 C 339.062 207.735 330.514 197.582 325.956 180.062 C 325.03 176.503 323.829 173.443 323.288 173.263 C 322.747 173.082 321.561 175.987 320.653 179.717 M 468.623 231.864 C 467.696 232.889 466.11 236.601 465.099 240.114 C 462.916 247.7 460.532 253.564 459.352 254.254 C 458.883 254.528 455.125 254.15 451 253.416 C 440.974 251.629 433.487 251.677 424.208 253.585 C 407.803 256.959 395.103 266.797 384.898 284.036 C 379.296 293.5 379.296 293.5 373.072 294.198 C 360.609 295.595 353.565 301.599 351.857 312.283 C 349.386 327.733 360.233 349.052 374.111 356.022 C 383.812 360.893 385.159 364.781 379.75 372.299 C 377.962 374.783 373.773 380.57 370.441 385.158 C 367.108 389.746 361.747 398 358.527 403.5 C 355.307 409 352.126 414.413 351.458 415.529 C 350.751 416.711 347.792 418.317 344.372 419.375 C 327.443 424.613 303.084 435.407 288.254 444.24 C 266.509 457.192 256.307 471.086 260.025 482.685 C 262.751 491.19 268.682 495.893 282.554 500.55 C 288.745 502.628 291.139 504.026 293.969 507.215 C 297.05 510.687 298.244 511.315 302.525 511.717 C 306.636 512.102 308.123 511.758 311.089 509.731 C 314.631 507.311 315.045 507.271 342.589 506.713 C 378.561 505.984 401.285 503.35 440.5 495.364 C 472.104 488.928 506.502 479.108 535.051 468.37 C 539.59 466.664 539.62 466.667 545.313 469.452 C 559.15 476.222 572.847 468.528 574.693 452.947 C 575.225 448.452 575.729 447.68 580.585 443.935 C 598.76 429.912 603.286 415.963 593.26 404.866 C 587.61 398.612 576.985 394.15 560.5 391.107 C 551.339 389.417 522.523 388.026 510.618 388.7 C 498.292 389.398 498.933 390.167 501.549 377.815 C 511.273 331.905 507.226 286.252 490.469 252.832 C 480.559 233.067 473.589 226.377 468.623 231.864 M 291.438 249.75 C 289.618 258.088 285.97 262.968 278.87 266.566 C 276.191 267.923 274 269.366 274 269.773 C 274 270.179 276.241 271.54 278.98 272.796 C 284.832 275.481 288.406 279.777 290.782 286.983 C 291.727 289.848 292.937 292.177 293.47 292.158 C 294.004 292.138 295.068 289.865 295.836 287.106 C 297.649 280.587 302.806 274.621 308.511 272.443 C 310.98 271.5 313 270.323 313 269.829 C 313 269.334 311.087 268.108 308.75 267.104 C 301.569 264.021 297.758 258.996 294.448 248.25 C 293.771 246.054 292.058 246.908 291.438 249.75 M 473.026 255.421 C 471.615 259.698 466.717 266.546 464.049 267.974 C 462.517 268.793 460.055 268.544 453.768 266.932 C 442.687 264.091 427.389 264.55 418.5 267.989 C 409.562 271.447 399.636 281.716 394.036 293.298 C 391.696 298.138 388.78 302.753 387.555 303.556 C 386.33 304.358 381.542 305.484 376.914 306.058 C 365.694 307.45 364.5 308.625 364.5 318.278 C 364.501 330.949 370.453 339.976 383.238 346.695 C 393.777 352.233 397.335 359.108 395.014 369.449 C 394.182 373.153 391.801 377.182 385.543 385.471 C 370.06 405.983 360.275 423.922 353.617 444 C 348.783 458.582 346.873 468.534 346.249 482.4 C 345.713 494.3 345.713 494.3 358.107 493.594 C 364.923 493.206 375 492.452 380.5 491.919 C 390.898 490.912 424.023 486.104 425.085 485.448 C 425.418 485.241 432.623 483.687 441.096 481.993 C 453.414 479.53 472.564 474.877 485.119 471.297 C 486.536 470.893 486.317 469.54 483.352 460.397 C 476.994 440.789 477.188 423.725 484.085 395.831 C 492.803 360.572 494.556 347.077 493.72 321.64 C 493.116 303.24 491.028 290.347 486.384 276.338 C 483.093 266.407 476.438 252 475.142 252 C 474.599 252 473.647 253.539 473.026 255.421 M 409.04 294.806 C 405.471 298.375 405.169 301.673 408.073 305.365 C 409.683 307.413 411.021 308 414.073 308 C 419.07 308 422 305.269 422 300.611 C 422 296.338 419.428 293.185 415.29 292.386 C 412.604 291.867 411.584 292.262 409.04 294.806 M 498.5 401.808 C 495.91 402.419 495.331 403.198 494.26 407.508 C 489.444 426.895 490.287 443.328 497.02 461.324 C 499.146 467.007 499.248 467.105 502.344 466.442 C 506.657 465.52 532.2 456.025 533.75 454.768 C 534.438 454.211 535 452.549 535 451.074 C 535 449.599 536.169 446.048 537.597 443.182 C 542.527 433.288 555.145 429.348 564.404 434.811 C 568.265 437.089 568.265 437.089 572.105 434.427 C 577.525 430.671 584.799 422.65 585.57 419.579 C 587.283 412.753 577.802 407.283 557.5 403.382 C 548.858 401.721 503.947 400.524 498.5 401.808 M 330.482 437.938 C 299.262 450.361 274.572 466.418 272.714 475.507 C 271.643 480.744 276.88 485.33 288.196 489.065 C 291.672 490.212 292.436 490.123 295.913 488.169 C 302.94 484.22 310.439 485.59 315.323 491.714 C 316.943 493.746 318.016 494 324.993 494 C 333.782 494 332.791 496.079 334.525 474 C 335.222 465.122 339.419 445.547 342.067 438.831 C 343.097 436.218 343.607 433.875 343.202 433.625 C 342.797 433.374 337.073 435.315 330.482 437.938" stroke-linecap="round" />
</g>
		<g transform="matrix(1 0 0 1 -8.88 30.37)"  >
<path style="stroke: none; stroke-width: 1; stroke-dasharray: none; stroke-linecap: butt; stroke-dashoffset: 0; stroke-linejoin: miter; stroke-miterlimit: 4; fill: rgb(237,228,249); fill-rule: evenodd; opacity: 1;" vector-effect="non-scaling-stroke"  transform=" translate(-419.99, -372.92)" d="M 473.026 255.421 C 471.615 259.698 466.717 266.546 464.049 267.974 C 462.517 268.793 460.055 268.544 453.768 266.932 C 442.687 264.091 427.389 264.55 418.5 267.989 C 409.562 271.447 399.636 281.716 394.036 293.298 C 391.696 298.138 388.78 302.753 387.555 303.556 C 386.33 304.358 381.542 305.484 376.914 306.058 C 365.694 307.45 364.5 308.625 364.5 318.278 C 364.501 330.949 370.453 339.976 383.238 346.695 C 393.777 352.233 397.335 359.108 395.014 369.449 C 394.182 373.153 391.801 377.182 385.543 385.471 C 370.06 405.983 360.275 423.922 353.617 444 C 348.783 458.582 346.873 468.534 346.249 482.4 C 345.713 494.3 345.713 494.3 358.107 493.594 C 364.923 493.206 375 492.452 380.5 491.919 C 390.898 490.912 424.023 486.104 425.085 485.448 C 425.418 485.241 432.623 483.687 441.096 481.993 C 453.414 479.53 472.564 474.877 485.119 471.297 C 486.536 470.893 486.317 469.54 483.352 460.397 C 476.994 440.789 477.188 423.725 484.085 395.831 C 492.803 360.572 494.556 347.077 493.72 321.64 C 493.116 303.24 491.028 290.347 486.384 276.338 C 483.093 266.407 476.438 252 475.142 252 C 474.599 252 473.647 253.539 473.026 255.421 M 409.04 294.806 C 405.471 298.375 405.169 301.673 408.073 305.365 C 409.683 307.413 411.021 308 414.073 308 C 419.07 308 422 305.269 422 300.611 C 422 296.338 419.428 293.185 415.29 292.386 C 412.604 291.867 411.584 292.262 409.04 294.806" stroke-linecap="round" />
</g>
</g>
</g>
</svg>